<?xml version="1.0" encoding="UTF-8"?>
<svg version="1.1" xmlns="http://www.w3.org/2000/svg" width="645" height="485">
<path d="M0 0 C1.31998825 2.63997649 1.12956032 4.64077317 1.1328125 7.59375 C1.13410156 8.70621094 1.13539063 9.81867188 1.13671875 10.96484375 C1.13285156 12.13144531 1.12898438 13.29804687 1.125 14.5 C1.12886719 15.66660156 1.13273437 16.83320312 1.13671875 18.03515625 C1.13542969 19.14761719 1.13414062 20.26007813 1.1328125 21.40625 C1.13168457 22.43041016 1.13055664 23.45457031 1.12939453 24.50976562 C1 27 1 27 0 29 C-1.88256836 29.34716797 -1.88256836 29.34716797 -4.33984375 29.4921875 C-5.68054932 29.5862085 -5.68054932 29.5862085 -7.04833984 29.68212891 C-8.0017627 29.74577637 -8.95518555 29.80942383 -9.9375 29.875 C-23.78752994 31.01864722 -23.78752994 31.01864722 -34.9375 38.75 C-43.6513698 49.82174045 -43.08141132 65.74727243 -41.79052734 79.1796875 C-41.26135401 83.40522002 -40.56435417 87.60266361 -39.86102295 91.80215454 C-37.69901712 104.96407319 -36.45760382 117.97423665 -36.375 131.3125 C-36.36251221 131.99948975 -36.35002441 132.68647949 -36.3371582 133.39428711 C-36.13835671 146.58993511 -38.91035369 159.28668462 -47 170 C-47.66 170 -48.32 170 -49 170 C-49.33 170.99 -49.66 171.98 -50 173 C-51.92578125 174.53515625 -51.92578125 174.53515625 -54.3125 176.0625 C-55.09238281 176.56910156 -55.87226562 177.07570312 -56.67578125 177.59765625 C-58.74495097 178.84611328 -60.8211285 179.95793102 -63 181 C-62.31035156 181.38929688 -61.62070313 181.77859375 -60.91015625 182.1796875 C-48.31827479 189.67608881 -41.88149094 197.80829874 -38 212 C-36.49876126 218.42151122 -36.66780289 224.93745266 -36.625 231.5 C-36.61944092 232.2155304 -36.61388184 232.93106079 -36.6081543 233.66827393 C-36.56151747 245.74687938 -37.72581127 257.43820456 -39.5 269.375 C-42.46775338 289.46434829 -43.87162497 305.78188859 -36 325 C-35.34 325 -34.68 325 -34 325 C-34 325.66 -34 326.32 -34 327 C-33.4225 327.28875 -32.845 327.5775 -32.25 327.875 C-30.86656627 328.56671687 -29.48975818 329.27212897 -28.125 330 C-21.1896997 333.26367073 -14.24276008 333.78982883 -6.69335938 334.31640625 C-5.84451172 334.37957031 -4.99566406 334.44273437 -4.12109375 334.5078125 C-2.96758423 334.57959717 -2.96758423 334.57959717 -1.79077148 334.65283203 C-0.9043396 334.82468018 -0.9043396 334.82468018 0 335 C2.12094354 339.24188707 1.22940069 344.83940718 1.25 349.5 C1.270625 350.66660156 1.29125 351.83320313 1.3125 353.03515625 C1.32023437 354.70384766 1.32023437 354.70384766 1.328125 356.40625 C1.3374707 357.43041016 1.34681641 358.45457031 1.35644531 359.50976562 C1.23881836 360.33154297 1.12119141 361.15332031 1 362 C-7.14647837 367.43098558 -23.94133577 363.73714363 -33 362 C-49.11923893 358.10914922 -61.89033384 350.1503481 -71 336 C-85.42144263 311.96426228 -77.60567665 275.95558306 -73.68359375 249.76953125 C-70.66861991 229.56234223 -70.66861991 229.56234223 -75.125 210.00390625 C-76 208 -76 208 -76 206 C-76.66 206 -77.32 206 -78 206 C-78.99 204.88625 -78.99 204.88625 -80 203.75 C-86.12683022 197.4628748 -94.97009246 196.47451958 -103.3125 195.6875 C-106 195 -106 195 -107.15136719 193.26416016 C-108.10383441 190.72296885 -108.25840164 188.79521276 -108.265625 186.0859375 C-108.26820312 185.16039062 -108.27078125 184.23484375 -108.2734375 183.28125 C-108.26570313 182.3221875 -108.25796875 181.363125 -108.25 180.375 C-108.25773437 179.40820312 -108.26546875 178.44140625 -108.2734375 177.4453125 C-108.27085938 176.52234375 -108.26828125 175.599375 -108.265625 174.6484375 C-108.26336914 173.80458496 -108.26111328 172.96073242 -108.25878906 172.09130859 C-108 170 -108 170 -106 168 C-103.28667446 167.46900511 -100.60745045 167.02356058 -97.875 166.625 C-88.6507653 165.1140594 -82.14938715 163.32526954 -76.18359375 155.7265625 C-65.41342191 140.01561876 -73.40935362 110.12768397 -75.8671875 92.80859375 C-79.25934716 68.58425682 -82.15310459 42.07619478 -66.93359375 21.16015625 C-65.97646484 20.09087891 -65.97646484 20.09087891 -65 19 C-64.34 19 -63.68 19 -63 19 C-62.7834375 18.4225 -62.566875 17.845 -62.34375 17.25 C-57.31472778 8.82931164 -44.6795618 4.52025351 -35.62890625 2.09765625 C-23.80513844 -0.52850303 -12.05917213 -0.30908761 0 0 Z " fill="#FDFDFD" transform="translate(143,71)"/>
<path d="M0 0 C13.7970283 0.16681693 27.34092894 3.06940535 39.20678711 10.3894043 C40.11364258 10.90374023 40.11364258 10.90374023 41.03881836 11.4284668 C52.60562254 18.68709335 58.97870179 31.40146731 62.01928711 44.2644043 C65.65913063 64.93871552 62.18529362 86.13744397 59.33959961 106.70581055 C58.01322601 116.40080403 56.91869984 125.96872471 56.83178711 135.7644043 C56.81801025 136.5898877 56.8042334 137.41537109 56.79003906 138.26586914 C56.84466021 145.41614171 57.95682788 152.59215769 62.51928711 158.2644043 C63.40616211 158.9656543 64.29303711 159.6669043 65.20678711 160.3894043 C66.05241211 161.0906543 66.89803711 161.7919043 67.76928711 162.5144043 C73.75078215 165.77703795 80.49344204 167.23098671 87.26928711 167.7644043 C90.20678711 168.3894043 90.20678711 168.3894043 91.87084961 170.43237305 C93.53735072 174.12109041 93.61133726 177.36138402 93.51928711 181.3269043 C93.52250977 182.01719727 93.52573242 182.70749023 93.52905273 183.41870117 C93.48368581 187.769802 92.7949 191.34635991 91.20678711 195.3894043 C90.01182617 195.53635742 88.81686523 195.68331055 87.58569336 195.8347168 C74.84848952 197.52920775 74.84848952 197.52920775 64.20678711 204.3894043 C63.42303711 205.1112793 62.63928711 205.8331543 61.83178711 206.5769043 C50.60365312 226.01021313 58.96509242 255.45953131 61.91772461 276.48706055 C65.145829 300.07282751 65.28011515 324.04795027 50.41381836 343.7409668 C39.22925372 357.16244436 24.70796222 361.74875333 7.72631836 364.07299805 C3.50659034 364.45235206 -0.68285427 364.63917816 -4.91821289 364.7019043 C-5.65338135 364.71962891 -6.3885498 364.73735352 -7.14599609 364.75561523 C-12.27642344 364.74843228 -12.27642344 364.74843228 -14.49267578 363.20874023 C-16.28203555 360.7055848 -16.16582816 358.97603512 -16.15649414 355.91674805 C-16.15584961 354.85262695 -16.15520508 353.78850586 -16.15454102 352.69213867 C-16.13842773 351.58161133 -16.12231445 350.47108398 -16.10571289 349.3269043 C-16.10893555 348.21250977 -16.1121582 347.09811523 -16.11547852 345.94995117 C-16.06015428 337.65634569 -16.06015428 337.65634569 -13.79321289 335.3894043 C-10.92672576 334.99331856 -8.11017084 334.69303408 -5.23071289 334.4519043 C6.42655335 333.27185671 14.0567126 331.43751197 22.20678711 322.3894043 C31.40702441 307.55031187 26.94380867 285.65285824 24.76928711 269.3894043 C24.30843732 265.88989636 23.85176052 262.38986335 23.39819336 258.8894043 C23.28986176 258.05357819 23.18153015 257.21775208 23.06991577 256.3565979 C17.44509872 212.32104593 17.44509872 212.32104593 30.28881836 195.6940918 C35.62930102 189.61851783 40.82001551 184.82511202 48.20678711 181.3894043 C46.55678711 180.7294043 44.90678711 180.0694043 43.20678711 179.3894043 C43.20678711 178.7294043 43.20678711 178.0694043 43.20678711 177.3894043 C42.67053711 177.3275293 42.13428711 177.2656543 41.58178711 177.2019043 C38.03652554 175.98905166 35.9475479 173.94329504 33.20678711 171.3894043 C33.20678711 170.7294043 33.20678711 170.0694043 33.20678711 169.3894043 C32.54678711 169.3894043 31.88678711 169.3894043 31.20678711 169.3894043 C15.40062042 144.31978746 21.35012249 113.85504439 25.80053711 86.29956055 C26.58414164 80.68623962 26.92458555 75.04720149 27.20678711 69.3894043 C27.24932617 68.57729492 27.29186523 67.76518555 27.33569336 66.9284668 C27.64858127 55.37247316 25.27532693 45.77337906 17.85522461 36.74487305 C15.65491153 34.93561087 13.45639812 34.1904914 10.76928711 33.2644043 C9.82182617 32.93182617 8.87436523 32.59924805 7.89819336 32.2565918 C2.41844394 30.49098313 -2.74999101 30.09432579 -8.48071289 29.87182617 C-13.57772964 29.60488755 -13.57772964 29.60488755 -15.79321289 27.3894043 C-16.03613281 24.79150391 -16.03613281 24.79150391 -16.02368164 21.54174805 C-16.02174805 20.3796582 -16.01981445 19.21756836 -16.01782227 18.02026367 C-16.00557617 16.80145508 -15.99333008 15.58264648 -15.98071289 14.3269043 C-15.98006836 13.10422852 -15.97942383 11.88155273 -15.97875977 10.62182617 C-15.91462555 -2.21214247 -11.90480772 0.05016668 0 0 Z " fill="#FDFDFD" transform="translate(515.793212890625,70.610595703125)"/>
<path d="M0 0 C15.96819633 -0.7270511 29.07221372 1.99215086 42.1875 11.25 C42.785625 11.8275 43.38375 12.405 44 13 C44 13.66 44 14.32 44 15 C44.99 15.33 45.98 15.66 47 16 C48.31640625 17.96875 48.31640625 17.96875 49.5625 20.5 C50.18318359 21.72203125 50.18318359 21.72203125 50.81640625 22.96875 C53.42866382 29.6588882 54.38728608 36.34873245 54.375 43.5 C54.37693359 44.73472046 54.37693359 44.73472046 54.37890625 45.99438477 C54.21964575 56.10652187 52.80493838 66.13120972 51.42333984 76.13671875 C48.38839035 93.557026 48.38839035 93.557026 53.26953125 109.6796875 C57.68160856 114.16690968 62.20669868 114.92558717 68.328125 115.578125 C71 116 71 116 74 118 C74.34057617 119.87939453 74.34057617 119.87939453 74.29296875 122.1328125 C74.28330078 122.93847656 74.27363281 123.74414062 74.26367188 124.57421875 C74.23853516 125.41597656 74.21339844 126.25773437 74.1875 127.125 C74.16719727 128.39923828 74.16719727 128.39923828 74.14648438 129.69921875 C74.11108219 131.79974837 74.05727401 133.89995293 74 136 C73.05898438 136.17015625 72.11796875 136.3403125 71.1484375 136.515625 C60.25553232 138.42013962 60.25553232 138.42013962 52.1875 145.375 C47.38686666 155.98692633 50.30566808 169.26884312 52 180.3125 C53.34731928 189.7706229 54.40545069 199.11998002 54.4375 208.6875 C54.45200195 210.01938354 54.45200195 210.01938354 54.46679688 211.37817383 C54.31795664 222.90344246 50.9741558 233.93151542 42.7734375 242.26171875 C34.0936667 249.7152997 25.31987257 252.07680749 14.1875 253.375 C12.96848999 253.52074463 12.96848999 253.52074463 11.72485352 253.66943359 C7.00306409 254.12580026 3.41269472 254.06433756 -1 252 C-2.50929383 248.98141234 -2.22510073 245.87099046 -2.25 242.5625 C-2.270625 241.88123047 -2.29125 241.19996094 -2.3125 240.49804688 C-2.334539 237.68531894 -2.30192619 235.5220807 -0.875 233.0546875 C1.84048772 231.52722566 4.15228881 231.62373383 7.25 231.5625 C13.07713304 231.26367266 16.24510662 230.27559321 21 227 C21.66 227 22.32 227 23 227 C29.81778359 214.33840191 28.66448136 199.16058069 26 185.4375 C23.21303695 170.04586318 21.1188871 150.72838837 29.64453125 136.90234375 C32.82325897 132.44113222 36.32236941 129.72861784 41 127 C41.33 126.34 41.66 125.68 42 125 C41.29875 124.773125 40.5975 124.54625 39.875 124.3125 C33.94463506 121.60515948 30.15882663 117.64076184 27 112 C22.02310179 96.77761904 23.94963859 79.94174974 26.51953125 64.42578125 C29.38590169 45.82228301 29.38590169 45.82228301 23.4921875 28.7265625 C19.00875085 23.53892114 14.83105566 22.80973532 8.25 22.3125 C6.58710938 22.24482422 6.58710938 22.24482422 4.890625 22.17578125 C2 22 2 22 -1 21 C-2.15795477 17.52613568 -2.16829849 14.72230696 -2.1875 11.0625 C-2.20167969 9.83660156 -2.21585937 8.61070312 -2.23046875 7.34765625 C-2.01676797 4.24356188 -1.63998182 2.58637449 0 0 Z " fill="#FDFDFD" transform="translate(439,126)"/>
<path d="M0 0 C0 6.6 0 13.2 0 20 C-3.23506844 21.07835615 -5.78739686 21.13839052 -9.1875 21.25 C-15.28533418 21.68507401 -19.45214368 22.85066717 -24 27 C-28.47749487 32.6714935 -29.36686998 39.70197811 -29.3125 46.75 C-29.31048584 47.4817041 -29.30847168 48.2134082 -29.30639648 48.96728516 C-29.19352027 55.35188844 -28.23897917 61.47825638 -27.14892578 67.75732422 C-24.41719473 83.86896244 -22.18533084 102.82895027 -32 117 C-35.022679 120.19540351 -38.35173171 122.56782114 -42 125 C-41.34 125.45375 -40.68 125.9075 -40 126.375 C-39.01 127.179375 -39.01 127.179375 -38 128 C-38 128.66 -38 129.32 -38 130 C-37.360625 130.268125 -36.72125 130.53625 -36.0625 130.8125 C-34 132 -34 132 -33 135 C-32.34 135 -31.68 135 -31 135 C-22.29725984 152.57446556 -25.39492402 171.13404715 -28.125 189.75 C-29.66117308 201.03591672 -31.28173611 213.87358929 -25 224 C-21.23675031 228.49469823 -15.68093372 229.6926993 -10.03515625 230.33984375 C-8.12027437 230.48327117 -6.2033371 230.60237676 -4.28515625 230.69140625 C-2 231 -2 231 0 233 C0.22705078 234.87939453 0.22705078 234.87939453 0.1953125 237.1328125 C0.18886719 237.93847656 0.18242187 238.74414062 0.17578125 239.57421875 C0.15064453 240.83685547 0.15064453 240.83685547 0.125 242.125 C0.11597656 242.97449219 0.10695313 243.82398438 0.09765625 244.69921875 C0.07405647 246.79959884 0.03818483 248.89983444 0 251 C-4.83267233 253.62260877 -9.00053067 252.9409576 -14.25 252.3125 C-15.05824219 252.23322266 -15.86648437 252.15394531 -16.69921875 252.07226562 C-25.59697823 251.08283477 -33.12676135 248.15134401 -41 244 C-41 243.34 -41 242.68 -41 242 C-41.58652344 241.76152344 -42.17304688 241.52304687 -42.77734375 241.27734375 C-45.4787876 239.72484438 -46.7525954 238.09312723 -48.5625 235.5625 C-49.14128906 234.78003906 -49.72007812 233.99757813 -50.31640625 233.19140625 C-54.46691666 225.32373339 -55.52908482 217.10082666 -55.4375 208.3125 C-55.43427734 207.30936768 -55.43105469 206.30623535 -55.42773438 205.27270508 C-55.24433272 194.80220964 -53.90486288 184.4813929 -52.42358398 174.12817383 C-49.83329574 157.51555538 -49.83329574 157.51555538 -55 142 C-60.04167621 137.79860315 -64.98089223 137.35929316 -71.42578125 136.78515625 C-74 136 -74 136 -75.34375 133.74609375 C-75.98912353 131.04551285 -76.23511963 128.77059642 -76.1875 126 C-76.18105469 125.175 -76.17460937 124.35 -76.16796875 123.5 C-75.99509812 120.92704185 -75.561266 118.51447167 -75 116 C-73.98679688 115.84144531 -72.97359375 115.68289062 -71.9296875 115.51953125 C-61.74577389 114.10782961 -61.74577389 114.10782961 -54 108 C-48.22885468 96.03270254 -51.17878307 82.42650326 -53.24609375 69.89453125 C-54.65110498 61.09786292 -55.2025727 52.40447584 -55.25 43.5 C-55.270625 42.53191406 -55.29125 41.56382812 -55.3125 40.56640625 C-55.37017526 29.8243893 -52.77785876 19.94815355 -45.14453125 12.08984375 C-35.38744911 3.20089657 -13.14681198 -6.57340599 0 0 Z " fill="#FDFDFD" transform="translate(206,127)"/>
<path d="M0 0 C1.99584278 4.11642574 2.42196743 7.44275172 2 12 C0.43310416 14.11041284 -0.44321193 14.89924787 -3.05078125 15.37109375 C-4.17033203 15.40396484 -4.17033203 15.40396484 -5.3125 15.4375 C-9.86687443 15.83804759 -12.5946364 16.7607517 -16 20 C-19.6691273 28.83926122 -18.64362181 39.75919295 -17 49 C-15.93369589 59.10619341 -15.30255553 68.38664439 -19 78 C-19.66 78 -20.32 78 -21 78 C-21.226875 78.598125 -21.45375 79.19625 -21.6875 79.8125 C-23.33811133 82.56351888 -25.1972081 83.52484637 -28 85 C-27.113125 85.495 -26.22625 85.99 -25.3125 86.5 C-20.5604887 89.73181811 -17.61923167 93.95392656 -16.46875 99.61328125 C-16.18313421 102.41786959 -16.05564667 105.18189343 -16 108 C-15.96132812 108.77988281 -15.92265625 109.55976563 -15.8828125 110.36328125 C-15.7241132 115.60917483 -16.2975404 120.68423177 -17 125.875 C-18.94555534 138.69051881 -18.94555534 138.69051881 -16 151 C-11.59498887 156.13917965 -5.35233238 156.23002032 1 157 C1.19551338 158.60320974 1.38111983 160.20762986 1.5625 161.8125 C1.66691406 162.70582031 1.77132812 163.59914063 1.87890625 164.51953125 C2 167 2 167 1 170 C-3.69418128 172.34709064 -10.8666879 170.9190367 -16 170 C-19.87750158 168.66490571 -23.43001651 167.01136284 -27 165 C-27 164.34 -27 163.68 -27 163 C-27.66 163 -28.32 163 -29 163 C-29.79831456 161.62884903 -30.5883061 160.25285116 -31.375 158.875 C-31.81585938 158.10929688 -32.25671875 157.34359375 -32.7109375 156.5546875 C-35.65276348 150.72452329 -36.32597727 145.78965198 -36.25 139.375 C-36.24613281 138.57449219 -36.24226562 137.77398437 -36.23828125 136.94921875 C-36.17421998 132.52899144 -35.8529043 128.34981191 -35 124 C-34.00871572 118.84098038 -33.67578781 113.80311019 -33.5625 108.5625 C-33.52833984 107.79228516 -33.49417969 107.02207031 -33.45898438 106.22851562 C-33.42533363 101.96982681 -33.61694602 100.47135539 -36.40625 97.0390625 C-40.38874754 93.90824365 -44.18122792 92.53324566 -49 91 C-49.76173392 86.6835078 -50.16063604 83.25566547 -49 79 C-48.40832031 78.87882812 -47.81664062 78.75765625 -47.20703125 78.6328125 C-40.88995883 77.42528265 -40.88995883 77.42528265 -35 75 C-34.01071382 72.13553479 -33.87155121 69.45813927 -33.8671875 66.4453125 C-33.86589844 65.58292969 -33.86460937 64.72054687 -33.86328125 63.83203125 C-33.86908203 62.49205078 -33.86908203 62.49205078 -33.875 61.125 C-33.87113281 60.23941406 -33.86726563 59.35382813 -33.86328125 58.44140625 C-33.87014513 53.83574391 -34.10348757 49.53306989 -35 45 C-35.85153758 39.79345595 -36.21235001 34.76158586 -36.25 29.5 C-36.270625 28.77941406 -36.29125 28.05882812 -36.3125 27.31640625 C-36.3672618 19.7455876 -33.66877679 14.00271302 -29 8 C-21.23488698 1.23041429 -10.02782305 -0.8149021 0 0 Z " fill="#FDFDFD" transform="translate(254,173)"/>
<path d="M0 0 C11.24042483 -0.28062087 20.57769846 -0.35191795 29.625 7.1875 C37.90664291 16.99470871 37.36220664 27.66576172 36.39501953 39.87866211 C35.30161436 52.51806998 35.30161436 52.51806998 34.47607422 56.57421875 C33.3346789 62.39006691 33.37842177 68.65198041 36 74 C38.87967214 75.56603684 41.80922587 76.31233316 45 77 C46.010625 77.226875 47.02125 77.45375 48.0625 77.6875 C48.701875 77.790625 49.34125 77.89375 50 78 C51.51403812 82.84492197 50.36602172 86.2591011 49 91 C48.39671875 91.10957031 47.7934375 91.21914063 47.171875 91.33203125 C40.88407713 92.34947757 40.88407713 92.34947757 36 96 C33.56115158 103.03459748 33.52909082 109.80866323 34.9375 117.0625 C36.21902594 123.67917295 36.67199517 130.27590092 37 137 C37.05414063 137.93457031 37.10828125 138.86914062 37.1640625 139.83203125 C37.35688686 145.5378794 36.52838435 149.88131168 34 155 C33.54173828 156.0209375 33.54173828 156.0209375 33.07421875 157.0625 C29.74300031 163.4584394 24.7416189 166.69469906 18 169 C15.17387089 169.57560446 12.37413451 169.90196482 9.5 170.125 C8.80543701 170.18357178 8.11087402 170.24214355 7.39526367 170.30249023 C4.19899037 170.43156522 2.47851872 170.43143555 0.0546875 168.24609375 C-1.68085211 164.55003717 -1.38778056 162.07169586 -1 158 C0.0625 156 0.0625 156 2 155 C4.33333333 155 6.66666667 155 9 155 C12.49088583 154.04171762 14.31315037 153.09087883 16.26171875 149.99609375 C19.99129953 141.84336103 19.88638124 133.70157929 18 125.0625 C16.88902955 119.50764777 16.66863141 114.02305807 16.5625 108.375 C16.52833984 107.49207275 16.49417969 106.60914551 16.45898438 105.69946289 C16.41536706 99.21441633 17.87261063 94.12157805 22 89 C23.485 88.505 23.485 88.505 25 88 C25 87.34 25 86.68 25 86 C26.485 85.01 26.485 85.01 28 84 C27.52949219 83.63648438 27.05898438 83.27296875 26.57421875 82.8984375 C21.35144582 78.68129166 18.41007852 74.67108695 17 68 C16.78356581 64.96119126 16.81014458 61.92085457 16.8125 58.875 C16.8115332 57.58903931 16.8115332 57.58903931 16.81054688 56.27709961 C16.85386842 51.09475965 17.31229631 46.37226078 18.546875 41.328125 C19.95037326 34.11704772 19.48766326 26.87765724 17 20 C16.67 19.01 16.34 18.02 16 17 C15.34 17 14.68 17 14 17 C14 16.34 14 15.68 14 15 C13.08476562 14.97421875 12.16953125 14.9484375 11.2265625 14.921875 C10.03804688 14.86515625 8.84953125 14.8084375 7.625 14.75 C5.84996094 14.68039063 5.84996094 14.68039063 4.0390625 14.609375 C1 14 1 14 -0.40234375 12.2109375 C-1.47563845 8.24044861 -1.87612362 3.75224724 0 0 Z " fill="#FDFDFD" transform="translate(389,174)"/>
</svg>
