<?xml version="1.0" encoding="UTF-8"?>
<svg version="1.1" xmlns="http://www.w3.org/2000/svg" width="512" height="512">
<path d="M0 0 C0.77950994 -0.00465992 1.55901987 -0.00931984 2.36215132 -0.01412097 C4.965938 -0.02604177 7.56920005 -0.01668693 10.1729908 -0.00736332 C12.0619301 -0.01153751 13.9508669 -0.0170155 15.83979905 -0.02368313 C21.02438893 -0.03814522 26.20881994 -0.03389058 31.39341855 -0.02651632 C36.98726538 -0.02178886 42.58107763 -0.03429078 48.17491341 -0.04453373 C59.13141369 -0.0617354 70.08785666 -0.06255888 81.04436694 -0.05732083 C89.94951275 -0.05328039 98.85464161 -0.05472118 107.75978661 -0.06006908 C109.66050306 -0.06119172 109.66050306 -0.06119172 111.59961782 -0.06233703 C114.17377424 -0.0638685 116.74793065 -0.06540685 119.32208706 -0.066952 C136.60708722 -0.07678169 153.89207748 -0.08094353 171.17707825 -0.07332611 C172.19073278 -0.07288035 172.19073278 -0.07288035 173.22486518 -0.07242559 C178.71242521 -0.0699767 184.19998517 -0.06736509 189.68754513 -0.06474145 C211.09077402 -0.05463981 232.49392446 -0.06299338 253.89714241 -0.086236 C277.95083449 -0.11231469 302.00446781 -0.12510536 326.05817902 -0.11804825 C338.79157199 -0.11455382 351.52490054 -0.1168029 364.25828362 -0.13429928 C375.09811005 -0.14900899 385.93782669 -0.14967275 396.77765094 -0.13222837 C402.30799186 -0.12370587 407.83813655 -0.12159947 413.36846733 -0.13687992 C418.4327908 -0.15069953 423.49674941 -0.14599875 428.56105162 -0.12664068 C430.39139446 -0.12287201 432.22176633 -0.12582757 434.05208336 -0.13625234 C447.2133193 -0.20587283 457.87725332 1.05587923 467.89079475 10.38031673 C476.23672114 19.33184322 477.33744812 28.65040063 477.27847481 40.54375362 C477.28655311 42.50481001 477.28655311 42.50481001 477.29479462 44.50548369 C477.30919581 48.11441936 477.30502134 51.72312562 477.29762781 55.33207357 C477.2928852 59.23196015 477.30541559 63.13179789 477.31564522 67.03166866 C477.33281689 74.66393807 477.33367666 82.29612509 477.32843231 89.92840879 C477.32438652 96.13330398 477.32583903 102.33817486 477.33118057 108.54306889 C477.33192899 109.42707784 477.33267742 110.3110868 477.33344852 111.22188391 C477.33498004 113.0178928 477.33651838 114.81390168 477.33806349 116.60991056 C477.3517825 133.44173087 477.34635493 150.27350467 477.33487827 167.10532392 C477.32494539 182.49484184 477.33788858 197.88423954 477.36181246 213.27373891 C477.38621009 229.08747817 477.39580977 244.90116145 477.38915974 260.71491915 C477.38566914 269.58845107 477.38788913 278.46189054 477.40541077 287.33540821 C477.42014099 294.888744 477.42075743 302.4419222 477.40333986 309.99525493 C477.39483441 313.84668681 477.39266896 317.69783729 477.40799141 321.54925442 C477.42441658 325.72969586 477.40967584 329.90945994 477.3920002 334.0898962 C477.4016052 335.29973216 477.41121021 336.50956813 477.42110628 337.75606579 C477.32193484 349.16485744 473.93013612 358.16304226 465.89079475 366.38031673 C459.43051438 371.38031673 459.43051438 371.38031673 455.89079475 371.38031673 C456.24013069 372.40512142 456.58946663 373.42992611 456.9493885 374.48578548 C457.40918511 375.84640811 457.86881155 377.20708824 458.32829475 378.56781673 C458.67344124 379.57811947 458.67344124 379.57811947 459.02556038 380.60883236 C460.77424077 385.80418714 462.00556882 390.5410205 462.0446949 396.02785397 C462.05329536 396.93189465 462.06189583 397.83593533 462.07075691 398.76737118 C462.07714684 400.23637371 462.07714684 400.23637371 462.08366585 401.73505306 C462.09184334 402.77631847 462.10002083 403.81758389 462.10844612 404.89040279 C462.13322832 408.33104542 462.14979604 411.77164704 462.16423225 415.21234798 C462.16955593 416.38929415 462.17487961 417.56624031 462.18036461 418.77885151 C462.20706242 425.00610737 462.22644986 431.2333434 462.24089241 437.460639 C462.25424155 442.61023334 462.28211785 447.75943238 462.32292366 452.90888119 C462.37223917 459.13275635 462.39701184 465.35627246 462.40411949 471.58033466 C462.41083008 473.94897731 462.42604697 476.31761199 462.4500103 478.68614292 C462.48166556 482.00365185 462.48169764 485.3197762 462.47429085 488.63739681 C462.49069618 489.61065914 462.50710152 490.58392147 462.52400398 491.5866766 C462.46445345 498.11910299 461.23531704 502.43654554 456.89079475 507.38031673 C451.26973526 512.10472077 446.36465186 513.10699276 439.17497444 513.01523495 C438.22639942 513.0230349 437.2778244 513.03083485 436.30050468 513.03887117 C433.13749221 513.05873702 429.97569012 513.04304734 426.81266975 513.02728939 C424.53877754 513.03406788 422.26489083 513.04297231 419.99101448 513.05383968 C413.82572121 513.07661165 407.66084683 513.067805 401.49554634 513.05194426 C395.03971933 513.03927458 388.58392788 513.05102836 382.12809944 513.05887508 C370.59305511 513.06855075 359.0582247 513.0530245 347.52321386 513.0275784 C337.07403198 513.00524089 326.62512787 513.00912144 316.175951 513.0321722 C304.0285016 513.05895696 291.8812701 513.06887553 279.73378563 513.05411088 C273.30831166 513.04632066 266.88302886 513.0452633 260.45756721 513.06179333 C254.41633267 513.07624964 248.37562206 513.06619421 242.33444405 513.03732204 C240.11892758 513.03071757 237.90336693 513.0325979 235.68786812 513.04363537 C232.660191 513.057327 229.63418603 513.04013009 226.60661507 513.01523495 C225.73267475 513.02638856 224.85873444 513.03754216 223.95831108 513.04903376 C217.8233318 512.95137997 213.62160148 511.33572929 208.89079475 507.38031673 C204.24345195 501.42218494 203.74651957 496.84808443 203.77726936 489.50263119 C203.77712334 488.59511105 203.77697731 487.6875909 203.77682686 486.75257015 C203.77752415 483.74955521 203.78530799 480.74660211 203.7931385 477.74359798 C203.79500334 475.66280304 203.79642693 473.58200766 203.79742622 471.50121212 C203.80124627 466.02181444 203.81107221 460.54244321 203.8221302 455.06305599 C203.83235533 449.47284967 203.83692621 443.88263908 203.84196663 438.29242611 C203.85269491 427.32171135 203.86976521 416.35101624 203.89079475 405.38031673 C203.03603554 405.38697857 202.18127632 405.3936404 201.30061531 405.40050411 C193.20988154 405.46083963 185.11922432 405.50640459 177.0283165 405.53575325 C172.86958459 405.55134939 168.71103999 405.5724757 164.55241585 405.60663509 C160.53236129 405.63944624 156.51248589 405.65721516 152.49230766 405.66494846 C150.96544643 405.67045322 149.43859401 405.68120174 147.91180992 405.6975069 C134.02769795 405.83976308 122.24761448 404.02000131 111.660326 394.34125423 C106.64769137 389.01826886 100.89079475 381.99925173 100.89079475 374.38031673 C100.33825586 374.38400391 99.78571697 374.38769108 99.21643448 374.39148998 C85.73548585 374.4800533 72.2545886 374.54587326 58.7734108 374.58756542 C52.25383447 374.60840782 45.73446868 374.6366649 39.2150135 374.68207455 C32.91912336 374.72565078 26.62343529 374.74947901 20.32740593 374.75982571 C17.92972192 374.76719587 15.53204851 374.78158798 13.13445091 374.80323696 C9.76669666 374.83242661 6.39976917 374.83626612 3.03190804 374.8344183 C2.04863029 374.8487994 1.06535255 374.8631805 0.05227852 374.8779974 C-10.54699591 374.8153887 -19.62114451 370.92564754 -27.10920525 363.38031673 C-31.99715356 356.77582983 -35.35429769 350.00742692 -35.36647415 341.67240429 C-35.37292304 340.5519384 -35.37937194 339.43147252 -35.38601625 338.27705312 C-35.38291905 337.05624791 -35.37982184 335.8354427 -35.37663078 334.57764339 C-35.3811619 333.27283575 -35.38569301 331.9680281 -35.39036143 330.62368083 C-35.40258257 327.00801392 -35.40233201 323.39243961 -35.39997268 319.77675676 C-35.39956428 315.87477954 -35.41060586 311.9728319 -35.42008781 308.07086849 C-35.43669421 300.42817935 -35.44219721 292.78552106 -35.44331257 285.14281538 C-35.44426327 278.92927123 -35.44837466 272.71573725 -35.45471382 266.50219631 C-35.4723257 248.88028758 -35.48155284 231.2584032 -35.48005287 213.63648561 C-35.47997296 212.68666668 -35.47989305 211.73684774 -35.47981071 210.75824642 C-35.47972895 209.80726581 -35.47964719 208.85628519 -35.47956295 207.87648699 C-35.4787502 192.467383 -35.49788538 177.05837679 -35.52608745 161.64930108 C-35.55482585 145.82210219 -35.5686272 129.99495097 -35.5668999 114.16772532 C-35.5662363 105.28408189 -35.57171532 96.40054095 -35.593256 87.51692104 C-35.61148043 79.95254125 -35.61580483 72.3883104 -35.60223715 64.82391813 C-35.59571367 60.96642571 -35.59556756 57.10921894 -35.61294365 53.25175381 C-35.63161038 49.06459532 -35.61910369 44.87809624 -35.60368156 40.69092464 C-35.61396869 39.47904232 -35.62425582 38.26716 -35.63485467 37.01855397 C-35.54793537 26.33132421 -32.67212822 17.17800893 -25.10920525 9.38031673 C-17.58892657 3.22736145 -9.74906447 -0.09239605 0 0 Z M-13.949049 23.19672298 C-14.49238884 24.06103939 -14.49238884 24.06103939 -15.04670525 24.94281673 C-15.42697868 25.5216058 -15.80725212 26.10039486 -16.199049 26.69672298 C-18.02364347 30.07183122 -18.2356672 32.84702999 -18.24063301 36.60531998 C-18.24447416 37.69441235 -18.2483153 38.78350472 -18.25227284 39.90559989 C-18.25140636 41.10674452 -18.25053988 42.30788914 -18.24964714 43.54543209 C-18.25261826 44.81783031 -18.25558939 46.09022852 -18.25865054 47.40118426 C-18.26672869 50.94011759 -18.26851057 54.47903065 -18.26924801 58.01797211 C-18.27109714 61.83198125 -18.27864375 65.64597983 -18.28538322 69.45998287 C-18.29897269 77.80291577 -18.30499217 86.14584386 -18.30939388 94.48878598 C-18.31215517 99.69655951 -18.31639231 104.90433119 -18.32089806 110.11210346 C-18.33309134 124.52642895 -18.34339066 138.94075294 -18.34677315 153.35508347 C-18.34699271 154.27786344 -18.34721228 155.20064342 -18.3474385 156.15138642 C-18.34765678 157.07639314 -18.34787505 158.00139985 -18.34809995 158.95443708 C-18.34854342 160.82890022 -18.34898998 162.70336336 -18.34943962 164.5778265 C-18.34966105 165.50762794 -18.34988248 166.43742938 -18.35011062 167.39540663 C-18.35405942 182.46465801 -18.37151566 197.53386107 -18.39479914 212.60309378 C-18.41850231 228.06856937 -18.43097452 243.5340207 -18.43214107 258.99951476 C-18.43305839 267.68520469 -18.43882515 276.37083165 -18.45696068 285.05650425 C-18.47234769 292.45196697 -18.47749041 299.84734724 -18.46922258 307.24282292 C-18.46531113 311.0167208 -18.46626962 314.79045258 -18.48027992 318.5643301 C-18.49532544 322.65442404 -18.48716706 326.74414237 -18.47669792 330.83425045 C-18.48475433 332.02870291 -18.49281073 333.22315537 -18.50111127 334.45380336 C-18.45705035 341.78798374 -17.67857015 346.3113531 -12.85920525 352.06781673 C-6.72724309 357.22423945 -1.22303643 357.81633943 6.49797249 357.72089291 C7.90401993 357.72155003 7.90401993 357.72155003 9.33847237 357.72222042 C12.41732762 357.72014092 15.49562911 357.69684934 18.5743885 357.67328548 C20.71672455 357.66768655 22.85906445 357.66341786 25.00140572 357.66042233 C30.6255126 357.64899701 36.24938511 357.6195496 41.87339973 357.58631039 C47.61809812 357.55555968 53.36283457 357.5419063 59.10759163 357.52680111 C70.36876201 357.49467779 81.62975885 357.44350933 92.89079475 357.38031673 C92.10713604 355.32375589 91.3216147 353.26790474 90.535326 351.21234798 C90.09809212 350.06741879 89.66085823 348.92248959 89.21037483 347.74286556 C87.56864115 343.55940618 85.77706142 339.45844634 83.89079475 335.38031673 C81.56607271 338.2333847 80.13996895 340.9210651 78.89079475 344.38031673 C69.93578093 345.95257107 69.93578093 345.95257107 66.26579475 343.94281673 C64.36577008 340.40186165 64.3236449 337.27532617 64.89079475 333.38031673 C66.13514644 330.02260364 67.76791303 326.91071194 69.45329475 323.75531673 C70.32351943 322.12508729 71.17953874 320.48717841 72.019701 318.84125423 C72.4019886 318.12759701 72.7842762 317.41393978 73.17814827 316.67865658 C74.73890643 311.64509119 72.51702554 307.0880147 70.457201 302.49359798 C69.97315804 301.38951595 69.48911507 300.28543392 68.99040413 299.14789486 C67.9735619 296.86226094 66.95278785 294.57837178 65.92790413 292.29633236 C60.43693394 279.73200085 58.12952691 268.83314249 62.89860725 255.57953548 C67.19147889 246.21197784 72.9513334 241.33606968 82.3400135 237.32562923 C91.60940139 233.89041963 101.49109071 234.83124445 110.89079475 237.38031673 C111.56561897 236.0306683 111.56561897 236.0306683 112.254076 234.65375423 C112.55805305 234.0458807 112.86203011 233.43800716 113.17521858 232.81171322 C113.8771376 231.40770849 114.57878587 230.00356838 115.28019905 228.59931087 C117.34211777 224.4723874 119.4093562 220.34824133 121.48454475 216.22797298 C126.53805239 206.18067013 131.49503315 196.09527543 136.32560921 185.93891048 C140.79944309 176.54188848 145.34207015 167.17874228 149.89079475 157.81781673 C150.26609322 157.04507412 150.64139168 156.2723315 151.02806282 155.47617245 C152.10683686 153.25518969 153.18618182 151.03448556 154.26579475 148.81391048 C154.58724464 148.15230923 154.90869453 147.49070797 155.23988533 146.80905819 C156.12098843 144.99824282 157.00579671 143.18923172 157.89079475 141.38031673 C158.39868538 140.27824886 158.906576 139.17618099 159.42985725 138.04071712 C160.89079475 135.38031673 160.89079475 135.38031673 163.89079475 133.38031673 C167.76418229 132.95776537 170.00678084 132.81364115 173.32829475 134.94281673 C175.48863874 138.31295336 175.2071573 140.40747459 174.89079475 144.38031673 C173.89200658 147.01254716 172.86984835 149.35604657 171.59391975 151.84125423 C171.24939766 152.53985561 170.90487556 153.23845699 170.54991341 153.95822811 C169.4260576 156.23039048 168.2834712 158.49256989 167.14079475 160.75531673 C166.35155374 162.34377466 165.56380669 163.93297569 164.7775135 165.52289486 C163.20810148 168.69394055 161.63286368 171.86197495 160.05290413 175.02777767 C157.26976042 180.61557643 154.57403127 186.24399441 151.89079475 191.88031673 C148.45822435 199.05960444 144.99865787 206.2253205 141.51579475 213.38031673 C140.943451 214.55648556 140.943451 214.55648556 140.35954475 215.75641537 C138.46718163 219.64448089 136.57293535 223.53161325 134.675951 227.41742611 C133.31739239 230.20131941 131.96880831 232.98966216 130.629076 235.78266048 C129.58990061 237.93340326 128.53131753 240.07517753 127.4337635 242.19672298 C127.04833382 242.96887142 126.66290413 243.74101986 126.26579475 244.53656673 C125.78239632 245.46179134 125.78239632 245.46179134 125.28923225 246.40570736 C124.38349963 250.89441171 127.38468799 255.69022173 129.14860725 259.75531673 C129.60155159 260.80461361 130.05449593 261.85391048 130.52116585 262.93500423 C131.01439339 264.07195736 131.50762093 265.20891048 132.01579475 266.38031673 C133.09519839 268.87977614 134.17371381 271.37958909 135.25016975 273.88031673 C135.53681496 274.54611752 135.82346016 275.2119183 136.11879158 275.89789486 C138.4548858 281.33712572 140.74848926 286.79358814 143.03141975 292.25531673 C143.55824852 293.51408627 143.55824852 293.51408627 144.09572029 294.79828548 C145.49458126 298.14120576 146.89339656 301.48411429 148.2839222 304.83051205 C153.56133389 320.08710138 153.56133389 320.08710138 161.89079475 333.38031673 C163.47234323 333.47625899 165.058186 333.50219633 166.64264107 333.50057125 C168.18449326 333.50263325 168.18449326 333.50263325 169.75749397 333.5047369 C171.46328621 333.49934399 171.46328621 333.49934399 173.20353889 333.49384212 C174.98866135 333.49406116 174.98866135 333.49406116 176.80984688 333.49428463 C180.08242749 333.49370568 183.35496582 333.48867655 186.62753797 333.48171067 C190.0441814 333.47547641 193.46082559 333.47487328 196.87747383 333.47368526 C203.35148742 333.47057216 209.82548421 333.46235906 216.29949039 333.45233577 C223.66817396 333.44117398 231.03685831 333.43566402 238.40554821 333.43064034 C253.56730644 333.42017643 268.72904892 333.4025774 283.89079475 333.38031673 C283.3666517 329.42186336 283.3666517 329.42186336 280.738451 326.52875423 C279.81934944 325.94351986 278.90024788 325.35828548 277.95329475 324.75531673 C261.80889474 313.57359221 252.30708523 296.61536791 248.57829475 277.50531673 C245.65037302 256.30603729 249.62527601 235.32228548 262.32829475 217.88031673 C263.82121672 216.02418389 265.3401467 214.18850249 266.89079475 212.38031673 C267.81118538 211.29170345 267.81118538 211.29170345 268.75016975 210.18109798 C281.74567649 196.047096 301.17578923 188.13550251 320.097826 187.09516048 C342.80584487 186.36740577 363.04748762 194.09606762 379.64079475 209.56781673 C393.61071931 224.33382155 400.69100789 243.68780417 401.26579475 263.88031673 C400.67337453 284.66653954 392.84000205 303.65716188 378.60173225 318.83734798 C374.99659375 322.21911335 371.10086241 324.96167224 366.94548225 327.62641048 C365.92841194 328.49459408 365.92841194 328.49459408 364.89079475 329.38031673 C364.89079475 330.70031673 364.89079475 332.02031673 364.89079475 333.38031673 C365.80667366 333.39489925 366.72255257 333.40948177 367.66618538 333.42450619 C371.14816213 333.48649659 374.6294664 333.56080081 378.1110096 333.64276791 C379.60212401 333.6755028 381.09334712 333.70368417 382.58464241 333.72675228 C403.82424267 334.06377497 421.87861097 338.04459146 438.89079475 351.38031673 C439.76864632 352.29555111 440.64649788 353.21078548 441.550951 354.15375423 C443.77566698 356.76348224 443.77566698 356.76348224 447.39079475 356.50531673 C452.7890139 354.77017487 455.80742871 351.0053658 458.89079475 346.38031673 C459.90017874 343.35216476 460.01900487 341.32776579 460.02501583 338.16090012 C460.0317026 336.52911165 460.0317026 336.52911165 460.03852445 334.86435777 C460.03834009 333.66457738 460.03815572 332.464797 460.03796577 331.22865963 C460.04348081 329.322179 460.04348081 329.322179 460.04910725 327.37718362 C460.05913096 323.84211397 460.06284464 320.3070613 460.06549656 316.77197945 C460.06939852 312.96202028 460.07897694 309.15207457 460.08770943 305.34212399 C460.10747698 296.1374753 460.11754045 286.9328255 460.12643722 277.72816089 C460.13081967 273.39424221 460.13618659 269.06032476 460.14142609 264.72640705 C460.15843871 250.3206654 460.17293307 235.91492451 460.18017483 221.50917435 C460.18208474 217.77033964 460.18400507 214.03150494 460.18596077 210.29267025 C460.18644451 209.36339343 460.18692825 208.43411661 460.18742665 207.47667988 C460.19572764 192.42169697 460.22106556 177.3667935 460.25354145 162.31184528 C460.28660695 146.85766048 460.30462313 131.40351606 460.30781907 115.9492957 C460.30998465 107.27134348 460.31874025 98.59350709 460.34428024 89.91558933 C460.3659803 82.52529208 460.37404111 75.1351388 460.36431346 67.7448133 C460.3597667 63.97466771 460.36167651 60.20481922 460.38107491 56.43471432 C460.40193471 52.34523091 460.391728 48.25640723 460.37854195 44.16689205 C460.38951119 42.97826527 460.40048044 41.7896385 460.41178209 40.56499273 C460.35328208 33.0596526 459.58726208 27.12448041 454.0743885 21.54047298 C453.49817757 21.17824642 452.92196663 20.81601986 452.32829475 20.44281673 C451.46011116 19.87240658 451.46011116 19.87240658 450.5743885 19.29047298 C446.60781794 17.14613205 442.8899851 17.23697906 438.51618099 17.24609566 C437.75534807 17.24374343 436.99451515 17.2413912 436.21062669 17.23896769 C433.64044498 17.2322677 431.0703137 17.23273621 428.50012398 17.23314571 C426.6470754 17.22984771 424.79402755 17.22612228 422.94098061 17.22200423 C417.83249428 17.2119689 412.72401969 17.20826498 407.61552489 17.20561492 C402.11230062 17.20171643 396.6090857 17.19213781 391.10586739 17.18340206 C377.807744 17.16362511 364.50961984 17.15357003 351.21148542 17.14467427 C344.95291248 17.14029352 338.69434039 17.13492617 332.43576813 17.1296854 C311.63743237 17.11267214 290.83909691 17.09815223 270.04075527 17.09093666 C268.69549547 17.0904619 267.35023567 17.08998601 266.00497587 17.089509 C265.00427762 17.08915443 265.00427762 17.08915443 263.98336326 17.08879271 C260.60330461 17.0875915 257.22324597 17.08637605 253.84318733 17.08515072 C253.17240285 17.08491057 252.50161837 17.08467042 251.81050709 17.08442299 C230.06063412 17.07652955 208.31081567 17.05309704 186.56096651 17.02059477 C163.56942014 16.98629965 140.5778963 16.96658696 117.58632153 16.96329242 C105.05188128 16.96112511 92.51752115 16.95234418 79.98310471 16.92683125 C69.30999649 16.90515736 58.63698786 16.89705752 47.96386013 16.90679803 C42.5168286 16.91135228 37.07000271 16.90939112 31.62299919 16.89003658 C26.63692641 16.8724726 21.65121031 16.87334758 16.66513409 16.88893387 C14.86091678 16.89132024 13.05667521 16.88693334 11.25249509 16.87510522 C8.79943468 16.86001867 6.34764342 16.86963549 3.89461422 16.88533211 C3.19453242 16.8751099 2.49445063 16.86488769 1.77315423 16.85435572 C-4.26117413 16.93859881 -9.63873995 18.94132234 -13.949049 23.19672298 Z M300.89079475 208.38031673 C299.50054085 208.98166439 299.50054085 208.98166439 298.082201 209.59516048 C286.16494613 215.42700861 277.08578761 224.75385956 270.89079475 236.38031673 C270.48216194 237.14086361 270.07352913 237.90141048 269.6525135 238.68500423 C266.87235121 244.366645 265.77627363 250.14701149 264.89079475 256.38031673 C285.77850842 258.82990598 306.56507451 255.63314835 323.47673225 242.34906673 C329.27104206 237.40737309 334.100982 232.01876357 337.89079475 225.38031673 C337.89079475 224.72031673 337.89079475 224.06031673 337.89079475 223.38031673 C341.45550867 222.19207876 344.14662836 222.11756822 347.89079475 222.38031673 C352.07041266 224.64832645 353.30141348 227.89987916 355.20329475 232.13031673 C360.08747727 242.36982478 366.38944873 247.92882155 376.89079475 252.38031673 C378.87945392 252.77572265 380.87918425 253.12628075 382.89079475 253.38031673 C381.94308758 239.48061147 373.52114154 227.61929867 363.82829475 218.13031673 C346.65870401 203.68125973 321.58327382 199.30067324 300.89079475 208.38031673 Z M342.89079475 247.38031673 C342.47571663 247.85340267 342.0606385 248.32648861 341.63298225 248.81391048 C325.95219388 265.64287374 303.59243627 273.11315409 281.03727913 273.91156673 C279.93706429 273.94250423 278.83684944 273.97344173 277.70329475 274.00531673 C275.98916389 274.06332455 275.98916389 274.06332455 274.24040413 274.12250423 C271.4573503 274.21566085 268.67428454 274.30147523 265.89079475 274.38031673 C267.63099088 288.97258629 275.46024505 301.48684036 286.76579475 310.78656673 C290.0681056 313.26329987 293.45336642 315.60908593 296.8868885 317.89984798 C298.89079475 319.38031673 298.89079475 319.38031673 299.89079475 321.38031673 C299.9484023 322.74764348 299.95228423 324.1174991 299.925951 325.48578548 C299.68196953 334.57792582 299.68196953 334.57792582 302.347826 343.05219173 C304.43776871 344.97613085 306.32428274 346.16481664 308.89079475 347.38031673 C309.76864632 347.80312923 310.64649788 348.22594173 311.550951 348.66156673 C320.81596867 352.51873302 328.01356409 352.31237374 337.29704475 348.66156673 C341.58219515 346.54480569 345.71189993 343.73810639 347.89079475 339.38031673 C348.02922134 338.05349073 348.11582435 336.72097148 348.17204475 335.38812923 C348.20942757 334.60051205 348.24681038 333.81289486 348.285326 333.00141048 C348.33753304 331.76584408 348.33753304 331.76584408 348.39079475 330.50531673 C348.4600034 328.88275849 348.53280029 327.26034851 348.60954475 325.63812923 C348.63983772 324.91770443 348.67013069 324.19727962 348.70134163 323.45502377 C348.89740519 321.30792562 349.18524548 319.42026237 349.89079475 317.38031673 C352.12516975 316.34516048 352.12516975 316.34516048 354.89079475 315.38031673 C368.02544945 307.43982094 377.72237484 295.58980233 381.92204475 280.73187923 C382.65030543 277.62328505 383.31348339 274.5200803 383.89079475 271.38031673 C382.93559944 271.16117611 381.98040413 270.94203548 380.9962635 270.71625423 C367.4952567 267.47117391 357.90748143 262.18081593 347.89079475 252.38031673 C347.318451 251.82344173 346.74610725 251.26656673 346.15641975 250.69281673 C345.0538611 249.60264638 343.9690584 248.4945225 342.89079475 247.38031673 Z M81.14079475 258.25531673 C77.32220266 263.55891686 76.18721105 267.84794862 76.89079475 274.38031673 C77.80684859 277.49944781 79.06086238 280.41749443 80.39079475 283.38031673 C80.72466194 284.1550433 81.05852913 284.92976986 81.4025135 285.72797298 C82.21906386 287.6177038 83.05313195 289.49984922 83.89079475 291.38031673 C86.53751763 289.02676487 87.90221293 286.66618215 89.41423225 283.47797298 C89.87595833 282.50996761 90.3376844 281.54196224 90.81340218 280.54462337 C91.5323365 279.00922909 91.5323365 279.00922909 92.26579475 277.44281673 C93.00116463 275.88905331 93.00116463 275.88905331 93.75139046 274.30390072 C96.99620785 267.40670171 100.12506495 260.48564469 102.89079475 253.38031673 C95.37475482 249.62229677 86.55885581 252.59098018 81.14079475 258.25531673 Z M113.89079475 270.38031673 C110.95285175 276.48508558 108.0202812 282.59233528 105.097826 288.70453548 C103.18518458 292.70060002 101.25223595 296.68412151 99.2775135 300.64984798 C98.90110725 301.41692074 98.524701 302.18399349 98.1368885 302.97431087 C97.44862953 304.3760671 96.74993458 305.7727639 96.03923225 307.16327572 C94.68720223 309.94536516 93.86293575 311.94533643 94.06266975 315.06391048 C94.8900882 317.37834038 95.81014339 319.51714155 96.95329475 321.69281673 C97.31552132 322.39019955 97.67774788 323.08758236 98.050951 323.80609798 C98.32809944 324.32559017 98.60524788 324.84508236 98.89079475 325.38031673 C103.18753457 324.01600277 107.26914245 322.40143729 111.38298225 320.56000423 C112.58181038 320.0250433 113.7806385 319.49008236 115.01579475 318.93891048 C116.26582229 318.37777391 117.51582195 317.81657523 118.76579475 317.25531673 C120.03911673 316.68604785 121.3125532 316.11703497 122.58610725 315.54828548 C125.68880404 314.16147404 128.79031303 312.77207159 131.89079475 311.38031673 C129.45785833 303.56701554 126.38175077 296.05095618 123.22014046 288.51166439 C122.31986129 286.36016231 121.43040837 284.20437678 120.54118538 282.04828548 C119.96957169 280.67952346 119.39732934 279.31102377 118.8243885 277.94281673 C118.55976311 277.29812435 118.29513771 276.65343197 118.02249336 275.98920345 C116.71641292 272.53271984 116.71641292 272.53271984 113.89079475 270.38031673 Z M129.91423225 330.44281673 C129.22898476 330.75356136 128.54373726 331.06430599 127.83772469 331.38446712 C125.64546971 332.37958105 123.45562571 333.37988148 121.26579475 334.38031673 C119.7815754 335.05513835 118.29720228 335.72962186 116.81266975 336.40375423 C113.17024758 338.05868772 109.52997954 339.71827711 105.89079475 341.38031673 C108.11645218 348.39802484 110.7788378 355.1261081 113.70329475 361.88031673 C114.11643929 362.8612933 114.52958382 363.84226986 114.95524788 364.85297298 C118.87290618 373.9197261 122.53268758 381.80217386 131.54704475 386.50531673 C136.75884147 388.45105417 142.09134308 388.52635527 147.59269905 388.52216244 C148.33978127 388.52563686 149.08686348 388.52911129 149.85658455 388.532691 C151.46890403 388.54000876 153.08123332 388.5453752 154.69356537 388.54898167 C157.24472691 388.55618184 159.79569999 388.57187102 162.34680367 388.59032345 C169.59654997 388.64265312 176.84618549 388.69083001 184.09611702 388.70624447 C188.53823056 388.71630625 192.97985792 388.74557159 197.42177963 388.78756428 C199.11345246 388.79989227 200.80519382 388.80499225 202.4969101 388.80276585 C204.85749719 388.8004216 207.21667681 388.82250524 209.57707405 388.85028744 C210.27686882 388.84368603 210.97666359 388.83708462 211.69766426 388.83028316 C214.58591884 388.88625604 216.4735369 389.07084006 218.82286263 390.81331539 C220.49058829 394.82204769 220.31288169 398.68202238 220.29142952 402.98236752 C220.30189812 404.44146038 220.30189812 404.44146038 220.3125782 405.93002987 C220.3325748 409.14531749 220.33205481 412.36028493 220.332201 415.57562923 C220.343968 417.80715461 220.35733055 420.0386721 220.37222481 422.27017879 C220.40844205 428.14497938 220.4286241 434.01971003 220.44377327 439.89459896 C220.46859085 449.3058708 220.50808868 458.71698814 220.56567383 468.12811565 C220.58205873 471.4220273 220.58578543 474.71579432 220.58868599 478.00974178 C220.59845752 480.01884878 220.60872001 482.02795347 220.61955452 484.03705502 C220.61700157 484.95865414 220.61444862 485.88025326 220.61181831 486.82977962 C220.61864632 487.66816372 220.62547432 488.50654781 220.63250923 489.37033749 C220.63496068 490.46593078 220.63496068 490.46593078 220.63746166 491.58365726 C220.74277996 493.633271 220.74277996 493.633271 222.89079475 495.38031673 C225.81923817 495.68035663 225.81923817 495.68035663 229.31941414 495.62082577 C229.98674202 495.62253462 230.65406991 495.62424347 231.34161985 495.6260041 C233.5880996 495.62931054 235.83428371 495.61827662 238.08073616 495.60736752 C239.686922 495.60680365 241.29310836 495.60711948 242.8992939 495.60825253 C247.26891566 495.608828 251.63842835 495.59704227 256.00802469 495.58310461 C260.57110515 495.57062963 265.13418791 495.56942931 269.69728279 495.56705379 C278.34227801 495.5608295 286.98722284 495.54440587 295.63219583 495.52435482 C305.47243486 495.50202532 315.31267626 495.49100982 325.15293431 495.48096395 C345.39891595 495.46004044 365.64485218 495.42484606 385.89079475 495.38031673 C385.896661 494.12164288 385.90252724 492.86296902 385.90857124 491.56615353 C385.965715 479.7204642 386.03843268 467.87495992 386.12650967 456.029459 C386.17129047 449.93914957 386.21052956 443.84890823 386.2372303 437.75849056 C386.26318635 431.88396343 386.30353398 426.00969726 386.35398102 420.13533115 C386.37070193 417.89101875 386.38218355 415.64666117 386.38840866 413.40229511 C386.39799296 410.26537566 386.42598424 407.1291318 386.45842171 403.99237728 C386.45698662 403.05873852 386.45555153 402.12509975 386.45407295 401.16316891 C386.4666111 400.30921535 386.47914925 399.4552618 386.49206734 398.57543087 C386.4966763 397.83338752 386.50128527 397.09134417 386.5060339 396.32681465 C387.0055072 393.79998861 387.86660102 392.93674405 389.89079475 391.38031673 C393.81623498 390.28991667 395.90862006 389.87256188 399.57614326 391.76856136 C403.02381754 395.65877198 402.59697577 399.06439693 402.55021858 404.10590267 C402.56070229 405.0915974 402.57118599 406.07729214 402.58198738 407.09285641 C402.61078541 410.35045318 402.60444003 413.60699022 402.597826 416.86469173 C402.6109381 419.12343335 402.62624081 421.38216322 402.64364815 423.64087582 C402.68356775 429.58555925 402.69369313 435.52993645 402.69767952 441.47473812 C402.70699776 447.5410155 402.74440313 453.60711195 402.77946663 459.67328548 C402.84411376 471.57566323 402.8747 483.47777418 402.89079475 495.38031673 C416.42079475 495.38031673 429.95079475 495.38031673 443.89079475 495.38031673 C445.57033453 492.02123718 445.04718897 488.2260176 445.05192757 484.53119564 C445.05689247 483.61383633 445.06185738 482.69647701 445.06697273 481.75131893 C445.0816261 478.7031648 445.08840472 475.65506287 445.09391975 472.60687923 C445.09967246 470.48614151 445.10543018 468.3654038 445.1111927 466.2446661 C445.12171434 461.7874391 445.12754812 457.33023019 445.13102913 452.87299252 C445.13648966 447.18615773 445.16046024 441.49956531 445.18900108 435.81280613 C445.20771881 431.42534368 445.2128381 427.03793825 445.21436501 422.65043926 C445.21737592 420.55586465 445.22535115 418.46129067 445.23855019 416.36675549 C445.3516815 397.01889836 443.39346784 380.2875782 429.37516975 365.63422298 C415.73608524 353.26039946 401.3875983 351.11275086 383.80827522 350.9203558 C381.94994068 350.89371068 380.09175513 350.85274315 378.23405647 350.79730892 C375.53830667 350.71795186 372.84535547 350.68502245 370.14860725 350.66156673 C369.32547035 350.62857479 368.50233345 350.59558285 367.65425301 350.56159115 C362.80582147 350.57827874 360.43884841 351.32449505 356.96965218 354.80707455 C355.94159936 355.99663046 354.91510485 357.1875365 353.89079475 358.38031673 C342.01279723 367.29341875 329.32704308 368.72175204 314.89079475 367.38031673 C305.9308879 365.72070885 296.49387442 361.32617918 291.01184273 353.80112362 C286.20658838 350.07398039 281.62005654 350.70079792 275.70012093 350.76850033 C274.4637841 350.7628355 273.22744728 350.75717068 271.95364571 350.75133419 C269.26895929 350.74246481 266.58607096 350.74259929 263.90158844 350.75816631 C259.651985 350.78252921 255.40293575 350.77096864 251.15332222 350.75449276 C243.66141719 350.73001096 236.16976498 350.73579111 228.67784309 350.74829769 C217.41065689 350.76687776 206.1435202 350.76194374 194.8763693 350.7282635 C190.65769777 350.71678964 186.43943217 350.72113402 182.22078359 350.73828387 C178.97039662 350.7480819 175.72004343 350.73899927 172.46965218 350.73334408 C170.72923653 350.74727955 170.72923653 350.74727955 168.95366096 350.76149654 C161.32369768 350.72399317 155.29786658 350.12449619 149.160326 345.18109798 C146.44971511 341.83598953 144.51070338 338.3996327 142.57829475 334.56781673 C142.21929085 333.87494564 141.86028694 333.18207455 141.49040413 332.46820736 C140.61542624 330.77658345 139.75190857 329.07904001 138.89079475 327.38031673 C135.6199075 327.38031673 132.84365092 329.09940257 129.91423225 330.44281673 Z " fill="#000000" transform="translate(35.10920524597168,-0.38031673431396484)"/>
<path d="M0 0 C0.98142471 -0.0071553 1.96284943 -0.01431061 2.97401428 -0.02168274 C4.05457596 -0.02437164 5.13513763 -0.02706055 6.2484436 -0.02983093 C7.38347824 -0.03640213 8.51851288 -0.04297333 9.6879425 -0.04974365 C13.45631978 -0.06950806 17.22465718 -0.08114508 20.99307251 -0.09111023 C22.27705555 -0.09518576 23.56103859 -0.09926128 24.88393021 -0.10346031 C30.97614017 -0.12217868 37.06833005 -0.13674286 43.16056287 -0.14507228 C50.19528766 -0.15484894 57.22969814 -0.18117978 64.26431215 -0.22157317 C70.35545883 -0.25535023 76.44647313 -0.26721541 82.53770828 -0.27127647 C85.13013467 -0.27616034 87.72255728 -0.28782502 90.31492233 -0.30631447 C93.93755153 -0.33054984 97.55935265 -0.32976925 101.18203735 -0.32279968 C102.25855057 -0.33560974 103.33506378 -0.3484198 104.44419861 -0.36161804 C111.70009238 -0.31057416 111.70009238 -0.31057416 115.00689697 2.03787231 C116.52826482 4.4367121 116.91197935 5.81807684 116.90713501 8.64717102 C116.92904907 9.39998352 116.95096313 10.15279602 116.97354126 10.92842102 C115.98129274 14.42902449 114.46397984 15.27651374 111.34463501 17.14717102 C107.62998768 17.74738094 103.94810815 17.69342872 100.19204712 17.66474915 C99.06632797 17.67175842 97.94060883 17.6787677 96.78077698 17.68598938 C93.06092645 17.7035902 89.34183699 17.69193917 85.62197876 17.67842102 C83.03795729 17.68111512 80.45393682 17.68499686 77.86991882 17.6900177 C72.4553773 17.69591546 67.04112186 17.68772142 61.62661743 17.6686554 C55.36948467 17.64687649 49.11287307 17.65394728 42.85575289 17.67596102 C36.83128344 17.69630653 30.80706875 17.69414561 24.78256416 17.68243408 C22.22086069 17.67976255 19.65914396 17.68305144 17.09745598 17.69235229 C13.52055276 17.70248967 9.94465642 17.68705495 6.36782837 17.66474915 C5.30537903 17.67284607 4.24292969 17.68094299 3.14828491 17.68928528 C-3.99040093 17.60664324 -3.99040093 17.60664324 -7.28572083 15.32966614 C-9.24235162 12.21182191 -9.59105836 9.81264866 -9.65536499 6.14717102 C-7.29839159 0.98427691 -5.47879564 0.02735995 0 0 Z " fill="#000000" transform="translate(296.6553649902344,70.85282897949219)"/>
<path d="M0 0 C1.13532669 -0.00700928 2.27065338 -0.01401855 3.44038391 -0.02124023 C7.19813399 -0.03886417 10.95513271 -0.02718106 14.71289062 -0.01367188 C17.32076156 -0.0163655 19.92863153 -0.02024684 22.53649902 -0.02526855 C28.00407064 -0.03254347 33.47142606 -0.02296159 38.93896484 -0.00390625 C45.25799114 0.01786251 51.57650118 0.01081101 57.89551497 -0.01121187 C63.97710989 -0.03155803 70.05847614 -0.02939571 76.14009094 -0.01768494 C78.72691418 -0.01501305 81.31375057 -0.01830354 83.90055847 -0.02760315 C87.51348981 -0.03774065 91.12542432 -0.02230505 94.73828125 0 C95.81165237 -0.00809692 96.8850235 -0.01619385 97.99092102 -0.02453613 C105.2000194 0.05808499 105.2000194 0.05808499 108.51013184 2.33117676 C110.42325071 5.40904186 110.74060545 7.91859312 110.86914062 11.51757812 C109.76706054 14.91565838 108.94816187 15.4648973 105.86914062 17.51757812 C103.70234871 17.77484703 103.70234871 17.77484703 101.13821411 17.78500366 C99.67880402 17.79779861 99.67880402 17.79779861 98.18991089 17.81085205 C97.12386627 17.80994568 96.05782166 17.80903931 94.95947266 17.80810547 C93.83565186 17.81482269 92.71183105 17.82153992 91.55395508 17.82846069 C87.82824314 17.84750327 84.10271074 17.85136807 80.37695312 17.85351562 C77.79246953 17.85993919 75.20798668 17.86666721 72.62350464 17.87368774 C67.201294 17.8856762 61.77915487 17.88945246 56.35693359 17.88818359 C50.09307997 17.88698235 43.82957101 17.90807974 37.5658046 17.93967092 C31.53710907 17.96899139 25.50860044 17.97615926 19.47982407 17.97496414 C16.91614245 17.97732728 14.3524584 17.98619064 11.78882217 18.00162888 C8.20478855 18.02119049 4.62164514 18.01548859 1.03759766 18.00341797 C-0.0243985 18.01465698 -1.08639465 18.025896 -2.18057251 18.03747559 C-6.68392993 17.99887008 -9.36600885 17.97563126 -13.2895813 15.62588501 C-15.39796093 13.21174053 -15.78557863 12.18558079 -15.69335938 9.01757812 C-15.69464844 8.26476562 -15.6959375 7.51195313 -15.69726562 6.73632812 C-13.69024875 -1.12564143 -6.6399013 -0.05008778 0 0 Z " fill="#000000" transform="translate(114.130859375,70.482421875)"/>
<path d="M0 0 C1.20474976 -0.01583633 2.40949951 -0.03167267 3.65075684 -0.04798889 C4.94356567 -0.04302902 6.23637451 -0.03806915 7.56835938 -0.03295898 C8.91687448 -0.0381979 10.26538591 -0.04447536 11.6138916 -0.05174255 C14.43499034 -0.06213153 17.25558419 -0.05760723 20.07666016 -0.04296875 C23.68512176 -0.02577349 27.29199208 -0.04928966 30.90027618 -0.08445835 C33.6833951 -0.10645789 36.4661346 -0.10498517 39.24931335 -0.09669304 C41.22407183 -0.09547853 43.1988069 -0.11538459 45.17346191 -0.13563538 C55.12857596 -0.0320715 55.12857596 -0.0320715 58.22631836 2.94165039 C60.85548588 6.98382887 60.59126433 8.77936257 59.91210938 13.53344727 C57.78373859 16.39023093 56.60402282 17.40995171 53.06628418 18.04138184 C51.41892273 18.0461554 51.41892273 18.0461554 49.73828125 18.05102539 C48.49018677 18.06363403 47.24209229 18.07624268 45.95617676 18.0892334 C44.59773188 18.08207355 43.23929216 18.07386955 41.88085938 18.06469727 C40.48368052 18.06739296 39.0865035 18.07127603 37.68933105 18.07629395 C34.76389673 18.08218553 31.83895159 18.0736379 28.91357422 18.05493164 C25.16729546 18.03214121 21.42216293 18.04526627 17.67592621 18.0692215 C14.79164015 18.08368931 11.90762499 18.07906922 9.02333069 18.06871033 C7.6422563 18.06604571 6.26115717 18.06930357 4.88011169 18.07862854 C2.94872521 18.08880815 1.01725227 18.07053614 -0.9140625 18.05102539 C-2.01230347 18.04784302 -3.11054443 18.04466064 -4.24206543 18.04138184 C-7.74438284 17.41627384 -8.92138698 16.29989591 -11.08789062 13.53344727 C-11.65429688 11.31469727 -11.65429688 11.31469727 -11.65039062 9.03344727 C-11.67230469 8.28063477 -11.69421875 7.52782227 -11.71679688 6.75219727 C-10.13379969 1.16746185 -5.20176469 0.03049109 0 0 Z " fill="#000000" transform="translate(300.087890625,131.466552734375)"/>
<path d="M0 0 C1.34851269 -0.00082935 2.69702527 -0.00329125 4.04553223 -0.00730896 C6.86676597 -0.01016227 9.68720374 0.00448617 12.50830078 0.03198242 C16.11662426 0.0660664 19.72352521 0.06004368 23.33191681 0.04131985 C26.11504887 0.03072881 28.89785243 0.03970634 31.68095398 0.05470467 C33.65565674 0.06237629 35.63039941 0.05504605 37.60510254 0.04747009 C39.41222717 0.07122459 39.41222717 0.07122459 41.25585938 0.09545898 C42.31333374 0.10165756 43.37080811 0.10785614 44.46032715 0.11424255 C48.05608279 0.75605091 49.75247418 2.10182623 52.34375 4.62890625 C52.97265625 6.84765625 52.97265625 6.84765625 52.90625 9.12890625 C52.90753906 9.88171875 52.90882813 10.63453125 52.91015625 11.41015625 C52.12080077 14.50225219 50.81782264 15.63564274 48.34375 17.62890625 C45.4979248 18.13684082 45.4979248 18.13684082 42.16992188 18.14648438 C40.92182739 18.15909302 39.67373291 18.17170166 38.38781738 18.18469238 C37.0293725 18.17753253 35.67093278 18.16932854 34.3125 18.16015625 C32.91532115 18.16285194 31.51814412 18.16673501 30.12097168 18.17175293 C27.19553736 18.17764451 24.27059221 18.16909688 21.34521484 18.15039062 C17.59893609 18.12760019 13.85380355 18.14072525 10.10756683 18.16468048 C7.22328078 18.1791483 4.33926562 18.1745282 1.45497131 18.16416931 C0.07389693 18.16150469 -1.30720221 18.16476255 -2.68824768 18.17408752 C-4.61963417 18.18426713 -6.55110711 18.16599512 -8.48242188 18.14648438 C-9.58066284 18.143302 -10.67890381 18.14011963 -11.8104248 18.13684082 C-15.34816345 17.5054107 -16.52787922 16.48568992 -18.65625 13.62890625 C-19.59329941 7.06956035 -19.59329941 7.06956035 -16.97045898 3.03710938 C-12.5269054 -1.22854311 -5.72769594 -0.05873954 0 0 Z " fill="#000000" transform="translate(117.65625,131.37109375)"/>
</svg>
